<?xml version="1.0" encoding="utf-8"?>
<svg version="1.1" xmlns:xlink="http://www.w3.org/1999/xlink" width="14px" height="14px" xmlns="http://www.w3.org/2000/svg">
  <g transform="matrix(1 0 0 1 -345 -221 )">
    <path d="M 352 225  C 353.68 225  355 226.32  355 228  C 355 229.68  353.68 231  352 231  C 350.32 231  349 229.68  349 228  C 349 226.32  350.32 225  352 225  Z " fill-rule="nonzero" fill="#ffffff" stroke="none" />
    <path d="M 352 223.5  C 354.52 223.5  356.5 225.48  356.5 228  C 356.5 230.52  354.52 232.5  352 232.5  C 349.48 232.5  347.5 230.52  347.5 228  C 347.5 225.48  349.48 223.5  352 223.5  Z " stroke-width="5" stroke="#f66500" fill="none" />
  </g>
</svg>