<?xml version="1.0" encoding="utf-8"?>
<svg version="1.1" xmlns:xlink="http://www.w3.org/1999/xlink" width="63px" height="32px" xmlns="http://www.w3.org/2000/svg">
  <g transform="matrix(1 0 0 1 -418 -438 )">
    <path d="M 419 442  A 3 3 0 0 1 422 439 L 477 439  A 3 3 0 0 1 480 442 L 480 466  A 3 3 0 0 1 477 469 L 422 469  A 3 3 0 0 1 419 466 L 419 442  Z " fill-rule="nonzero" fill="#67c23a" stroke="none" fill-opacity="0.0980392156862745" />
    <path d="M 418.5 442  A 3.5 3.5 0 0 1 422 438.5 L 477 438.5  A 3.5 3.5 0 0 1 480.5 442 L 480.5 466  A 3.5 3.5 0 0 1 477 469.5 L 422 469.5  A 3.5 3.5 0 0 1 418.5 466 L 418.5 442  Z " stroke-width="1" stroke="#67c23a" fill="none" stroke-opacity="0.2" />
  </g>
</svg>