<?xml version="1.0" encoding="utf-8"?>
<svg version="1.1" xmlns:xlink="http://www.w3.org/1999/xlink" width="63px" height="32px" xmlns="http://www.w3.org/2000/svg">
  <g transform="matrix(1 0 0 1 -491 -438 )">
    <path d="M 492 442  A 3 3 0 0 1 495 439 L 550 439  A 3 3 0 0 1 553 442 L 553 466  A 3 3 0 0 1 550 469 L 495 469  A 3 3 0 0 1 492 466 L 492 442  Z " fill-rule="nonzero" fill="#e6a23c" stroke="none" fill-opacity="0.0980392156862745" />
    <path d="M 491.5 442  A 3.5 3.5 0 0 1 495 438.5 L 550 438.5  A 3.5 3.5 0 0 1 553.5 442 L 553.5 466  A 3.5 3.5 0 0 1 550 469.5 L 495 469.5  A 3.5 3.5 0 0 1 491.5 466 L 491.5 442  Z " stroke-width="1" stroke="#e6a23c" fill="none" stroke-opacity="0.2" />
  </g>
</svg>