<?xml version="1.0" encoding="utf-8"?>
<svg version="1.1" xmlns:xlink="http://www.w3.org/1999/xlink" width="63px" height="32px" xmlns="http://www.w3.org/2000/svg">
  <g transform="matrix(1 0 0 1 -564 -438 )">
    <path d="M 565 442  A 3 3 0 0 1 568 439 L 623 439  A 3 3 0 0 1 626 442 L 626 466  A 3 3 0 0 1 623 469 L 568 469  A 3 3 0 0 1 565 466 L 565 442  Z " fill-rule="nonzero" fill="#909399" stroke="none" fill-opacity="0.0980392156862745" />
    <path d="M 564.5 442  A 3.5 3.5 0 0 1 568 438.5 L 623 438.5  A 3.5 3.5 0 0 1 626.5 442 L 626.5 466  A 3.5 3.5 0 0 1 623 469.5 L 568 469.5  A 3.5 3.5 0 0 1 564.5 466 L 564.5 442  Z " stroke-width="1" stroke="#909399" fill="none" stroke-opacity="0.2" />
  </g>
</svg>