<?xml version="1.0" encoding="utf-8"?>
<svg version="1.1" xmlns:xlink="http://www.w3.org/1999/xlink" width="63px" height="32px" xmlns="http://www.w3.org/2000/svg">
  <g transform="matrix(1 0 0 1 -418 -438 )">
    <path d="M 418.5 442  A 3.5 3.5 0 0 1 422 438.5 L 477 438.5  A 3.5 3.5 0 0 1 480.5 442 L 480.5 466  A 3.5 3.5 0 0 1 477 469.5 L 422 469.5  A 3.5 3.5 0 0 1 418.5 466 L 418.5 442  Z " fill-rule="nonzero" fill="#0099ff" stroke="none" fill-opacity="0.0980392156862745" />
    <path d="M 418.5 442  A 3.5 3.5 0 0 1 422 438.5 L 477 438.5  A 3.5 3.5 0 0 1 480.5 442 L 480.5 466  A 3.5 3.5 0 0 1 477 469.5 L 422 469.5  A 3.5 3.5 0 0 1 418.5 466 L 418.5 442  Z " stroke-width="1" stroke="#a7d2f9" fill="none" />
  </g>
</svg>