<?xml version="1.0" encoding="utf-8"?>
<svg version="1.1" xmlns:xlink="http://www.w3.org/1999/xlink" width="63px" height="32px" xmlns="http://www.w3.org/2000/svg">
  <g transform="matrix(1 0 0 1 -637 -438 )">
    <path d="M 638 442  A 3 3 0 0 1 641 439 L 696 439  A 3 3 0 0 1 699 442 L 699 466  A 3 3 0 0 1 696 469 L 641 469  A 3 3 0 0 1 638 466 L 638 442  Z " fill-rule="nonzero" fill="#f56c6c" stroke="none" fill-opacity="0.0980392156862745" />
    <path d="M 637.5 442  A 3.5 3.5 0 0 1 641 438.5 L 696 438.5  A 3.5 3.5 0 0 1 699.5 442 L 699.5 466  A 3.5 3.5 0 0 1 696 469.5 L 641 469.5  A 3.5 3.5 0 0 1 637.5 466 L 637.5 442  Z " stroke-width="1" stroke="#f56c6c" fill="none" stroke-opacity="0.2" />
  </g>
</svg>