<?xml version="1.0" encoding="utf-8"?>
<svg version="1.1" xmlns:xlink="http://www.w3.org/1999/xlink" width="20px" height="20px" xmlns="http://www.w3.org/2000/svg">
  <g transform="matrix(1 0 0 1 -585 -382 )">
    <path d="M 595 383  C 600.04 383  604 386.96  604 392  C 604 397.04  600.04 401  595 401  C 589.96 401  586 397.04  586 392  C 586 386.96  589.96 383  595 383  Z " fill-rule="nonzero" fill="#ffffff" stroke="none" />
    <path d="M 595 383  C 600.04 383  604 386.96  604 392  C 604 397.04  600.04 401  595 401  C 589.96 401  586 397.04  586 392  C 586 386.96  589.96 383  595 383  Z " stroke-width="2" stroke="#f66500" fill="none" />
  </g>
</svg>